<svg width="282" height="295" viewBox="0 0 282 295" fill="none" xmlns="http://www.w3.org/2000/svg">
<path fill-rule="evenodd" clip-rule="evenodd" d="M26.6161 0.14502C11.1367 0.14502 0.724609 14.0927 0.724609 28.4524V247.872C0.724609 259.978 4.90427 271.808 12.6648 280.712C20.4615 289.658 31.339 294.987 43.0077 294.987H239.706C251.375 294.987 262.252 289.658 270.049 280.712C277.809 271.808 281.989 259.978 281.989 247.872V91.1439C281.989 76.7841 271.577 62.8364 256.098 62.8364H216.423V28.4524C216.423 14.0927 206.011 0.14502 190.531 0.14502H26.6161ZM43.0077 275.987H205.757C200.316 267.824 197.423 257.944 197.423 247.872V72.3364V28.4524C197.423 22.0488 193.148 19.145 190.531 19.145H26.6161C23.9993 19.145 19.7246 22.0488 19.7246 28.4524V247.872C19.7246 255.719 22.4528 263.024 26.9883 268.228C31.4876 273.391 37.2871 275.987 43.0077 275.987ZM53.9354 62.8364C48.6887 62.8364 44.4354 67.0897 44.4354 72.3364V122.49C44.4354 127.736 48.6887 131.99 53.9354 131.99H97.6461C102.893 131.99 107.146 127.736 107.146 122.49V72.3364C107.146 67.0897 102.893 62.8364 97.6461 62.8364H53.9354ZM63.4354 112.99V81.8364H88.1461V112.99H63.4354ZM141.357 62.8364C136.11 62.8364 131.857 67.0897 131.857 72.3364C131.857 77.5831 136.11 81.8364 141.357 81.8364H163.212C168.459 81.8364 172.712 77.5831 172.712 72.3364C172.712 67.0897 168.459 62.8364 163.212 62.8364H141.357ZM141.357 112.99C136.11 112.99 131.857 117.243 131.857 122.49C131.857 127.736 136.11 131.99 141.357 131.99H163.212C168.459 131.99 172.712 127.736 172.712 122.49C172.712 117.243 168.459 112.99 163.212 112.99H141.357ZM53.9354 163.143C48.6887 163.143 44.4354 167.396 44.4354 172.643C44.4354 177.889 48.6887 182.143 53.9354 182.143H163.212C168.459 182.143 172.712 177.889 172.712 172.643C172.712 167.396 168.459 163.143 163.212 163.143H53.9354ZM53.9354 213.296C48.6887 213.296 44.4354 217.549 44.4354 222.796C44.4354 228.043 48.6887 232.296 53.9354 232.296H163.212C168.459 232.296 172.712 228.043 172.712 222.796C172.712 217.549 168.459 213.296 163.212 213.296H53.9354Z" fill="#151517"/>
</svg>
