<svg width="24" height="24" viewBox="0 0 24 24" fill="none" xmlns="http://www.w3.org/2000/svg">
<path d="M16.9846 0.00410948C17.9214 -0.0282374 18.855 0.130648 19.7284 0.47107C20.6018 0.811492 21.3967 1.32631 22.0646 1.98411C22.7084 2.65192 23.2117 3.442 23.5449 4.30766C23.8781 5.17333 24.0344 6.09701 24.0046 7.02411V16.9841C24.0046 19.0641 23.3246 20.8541 22.0246 22.1141C20.6455 23.3873 18.8205 24.0663 16.9446 24.0041H7.06458C5.20434 24.0617 3.39659 23.3825 2.03458 22.1141C1.35943 21.4379 0.830762 20.6299 0.481513 19.7404C0.132264 18.8509 -0.0300847 17.8991 0.00458181 16.9441V7.02411C0.00458181 2.80411 2.80458 0.00410948 7.02458 0.00410948H16.9846ZM17.0346 2.23411H7.06458C5.61458 2.23411 4.36458 2.66411 3.53458 3.48411C3.09108 3.9565 2.74737 4.51345 2.524 5.12169C2.30064 5.72993 2.2022 6.37696 2.23458 7.02411V16.9441C2.23458 18.4441 2.66458 19.6441 3.53458 20.5241C4.5049 21.3823 5.77042 21.8304 7.06458 21.7741H16.9446C18.2387 21.8304 19.5043 21.3823 20.4746 20.5241C20.9404 20.0632 21.3054 19.5106 21.5464 18.9012C21.7874 18.2918 21.8992 17.639 21.8746 16.9841V7.02411C21.9068 5.73678 21.4412 4.48663 20.5746 3.53411C20.1022 3.0906 19.5452 2.7469 18.937 2.52353C18.3288 2.30017 17.6817 2.20173 17.0346 2.23411ZM12.0046 5.76411C15.3946 5.76411 18.2046 8.56411 18.2046 11.9641C18.2046 13.6085 17.5514 15.1854 16.3886 16.3482C15.2259 17.5109 13.6489 18.1641 12.0046 18.1641C10.3602 18.1641 8.78325 17.5109 7.62052 16.3482C6.45779 15.1854 5.80458 13.6085 5.80458 11.9641C5.80458 10.3198 6.45779 8.74277 7.62052 7.58005C8.78325 6.41732 10.3602 5.76411 12.0046 5.76411ZM12.0046 7.98411C10.9533 7.98937 9.94656 8.40932 9.20318 9.1527C8.45979 9.89609 8.03984 10.9028 8.03458 11.9541C8.03984 13.0054 8.45979 14.0121 9.20318 14.7555C9.94656 15.4989 10.9533 15.9189 12.0046 15.9241C13.0559 15.9189 14.0626 15.4989 14.806 14.7555C15.5494 14.0121 15.9693 13.0054 15.9746 11.9541C15.9693 10.9028 15.5494 9.89609 14.806 9.1527C14.0626 8.40932 13.0559 7.98937 12.0046 7.98411ZM18.4446 4.21411C18.8159 4.21411 19.172 4.36161 19.4345 4.62416C19.6971 4.88671 19.8446 5.24281 19.8446 5.61411C19.8446 5.98541 19.6971 6.34151 19.4345 6.60406C19.172 6.86661 18.8159 7.01411 18.4446 7.01411C18.0733 7.01411 17.7172 6.86661 17.4546 6.60406C17.1921 6.34151 17.0446 5.98541 17.0446 5.61411C17.0446 5.24281 17.1921 4.88671 17.4546 4.62416C17.7172 4.36161 18.0733 4.21411 18.4446 4.21411Z" fill="black"/>
</svg>
